<?xml version="1.0" encoding="utf-8"?>
<!-- Generator: Adobe Illustrator 22.1.0, SVG Export Plug-In . SVG Version: 6.00 Build 0)  -->
<svg version="1.1" xmlns="http://www.w3.org/2000/svg" xmlns:xlink="http://www.w3.org/1999/xlink" x="0px" y="0px"
	 viewBox="0 0 1006.7 1125.1" style="enable-background:new 0 0 1006.7 1125.1;" xml:space="preserve">
<style type="text/css">
	.st0{fill:#EFF1F9;}
	.st1{fill:none;stroke:#404891;stroke-width:30;stroke-linecap:round;stroke-linejoin:round;stroke-miterlimit:10;}
	.st2{fill:none;stroke:#404891;stroke-width:44;stroke-linecap:round;stroke-linejoin:round;stroke-miterlimit:10;}
	.st3{fill:#404891;}
</style>
<g id="Layer_2">
	<path class="st0" d="M432.7,327.7h522c11.3,0,20.5-9.2,20.5-20.5s-9.2-20.5-20.5-20.5h-522c-11.3,0-20.5,9.2-20.5,20.5
		S421.4,327.7,432.7,327.7z"/>
	<path class="st0" d="M954.7,447.3h-290c-11.3,0-20.5,9.2-20.5,20.5s9.2,20.5,20.5,20.5h290c11.3,0,20.5-9.2,20.5-20.5
		S966.1,447.3,954.7,447.3z"/>
	<path class="st0" d="M955.7,597.3h-291c-11.3,0-20.5,9.2-20.5,20.5s9.2,20.5,20.5,20.5h291c11.3,0,20.5-9.2,20.5-20.5
		S967.1,597.3,955.7,597.3z"/>
	<path class="st0" d="M957.7,746.3h-344c-11.3,0-20.5,9.2-20.5,20.5s9.2,20.5,20.5,20.5h344c11.3,0,20.5-9.2,20.5-20.5
		S969.1,746.3,957.7,746.3z"/>
	<path class="st0" d="M959.7,896.3h-459c-11.3,0-20.5,9.2-20.5,20.5s9.2,20.5,20.5,20.5h459c11.3,0,20.5-9.2,20.5-20.5
		S971.1,896.3,959.7,896.3z"/>
	<path class="st0" d="M560.3,623.2c0.1-0.1,0.2-0.2,0.3-0.4c0.2-0.2,0.3-0.5,0.5-0.8c0.1-0.1,0.2-0.3,0.2-0.4
		c0.2-0.4,0.4-0.7,0.6-1.1c0.1-0.1,0.1-0.3,0.2-0.5c0.1-0.2,0.2-0.5,0.3-0.8c0.1-0.2,0.1-0.4,0.2-0.5c0.1-0.2,0.1-0.5,0.2-0.8
		c0-0.2,0.1-0.3,0.1-0.5c0.1-0.4,0.2-0.8,0.2-1.2l0,0c0,0,0,0,0-0.1L591,405.3c0.6-5-1.2-9.9-5-13.2c-3.7-3.3-8.9-4.5-13.7-3.3
		l-206.9,54.1c-0.1,0-0.2,0.1-0.3,0.1c-0.3,0.1-0.6,0.2-0.9,0.3c-0.2,0.1-0.4,0.1-0.5,0.2c-0.2,0.1-0.5,0.2-0.7,0.3
		c-0.2,0.1-0.4,0.2-0.5,0.2c-0.2,0.1-0.5,0.3-0.7,0.4s-0.4,0.2-0.5,0.3c-0.3,0.2-0.6,0.4-0.9,0.6c-0.1,0.1-0.3,0.2-0.4,0.3
		c-0.2,0.2-0.5,0.4-0.7,0.6c-0.1,0.1-0.2,0.2-0.3,0.3c-0.3,0.3-0.6,0.6-0.9,1L102.5,739.1c-1.4,0.6-2.7,1.5-3.9,2.6
		c-2,1.8-48.4,45.1-48.1,103.8c0.2,34.9,16.5,67.2,48.6,96.1c0.4,0.4,0.8,0.7,1.2,1c0.3,0.3,0.6,0.6,0.9,0.8
		c30.2,26.5,60.9,39.8,91.4,39.8c5.3,0,10.7-0.4,16-1.2c49.2-7.6,81.1-48.3,90.4-61.7c1.6-0.8,3.1-2,4.3-3.4l256.3-292.6
		C559.7,624,560,623.6,560.3,623.2z"/>
</g>
<g id="Layer_1">
	<line class="st1" x1="339.1" y1="409.6" x2="464" y2="519"/>
	<g>
		<polyline class="st1" points="546,355.5 339.1,409.6 82.8,702.2 261.8,859 518.1,566.4 546,355.5 		"/>
		<line class="st1" x1="518.1" y1="566.4" x2="393.3" y2="457"/>
	</g>
	<line class="st1" x1="422.8" y1="496.2" x2="249.5" y2="694"/>
	<path class="st1" d="M78.8,704.8c0,0-97.5,89.5,0.4,177.7"/>
	<path class="st1" d="M258.8,860.3c0,0-71.2,117.1-177.8,23.8"/>
	<line class="st1" x1="157.3" y1="629.2" x2="322.8" y2="773.8"/>
	<line class="st1" x1="482.1" y1="376.3" x2="535.1" y2="422.7"/>
	<line class="st2" x1="402.8" y1="255" x2="928.1" y2="255"/>
	<line class="st2" x1="634.8" y1="416.8" x2="928.1" y2="416.8"/>
	<line class="st2" x1="634.8" y1="567.3" x2="928.1" y2="567.3"/>
	<line class="st2" x1="583.8" y1="714.3" x2="933.2" y2="714.3"/>
	<line class="st2" x1="470.8" y1="861.3" x2="928.1" y2="861.3"/>
	<polyline class="st3" points="487.4,376.4 542.1,412.1 539.4,360.4 497.4,373.1 	"/>
</g>
</svg>
