<?xml version="1.0" encoding="utf-8"?>
<!-- Generator: Adobe Illustrator 22.1.0, SVG Export Plug-In . SVG Version: 6.00 Build 0)  -->
<svg version="1.1" id="Layer_1" xmlns="http://www.w3.org/2000/svg" xmlns:xlink="http://www.w3.org/1999/xlink" x="0px" y="0px"
	 viewBox="0 0 1209.7 1125.1" style="enable-background:new 0 0 1209.7 1125.1;" xml:space="preserve">
<style type="text/css">
	.st0{fill:#EFF1F9;}
	.st1{fill:none;stroke:#404891;stroke-width:30;stroke-linecap:round;stroke-linejoin:round;stroke-miterlimit:10;}
	.st2{fill:#404891;}
	.st3{fill:none;stroke:#404891;stroke-width:44;stroke-linecap:round;stroke-linejoin:round;stroke-miterlimit:10;}
</style>
<path class="st0" d="M1075.4,989.5H274c-6.4,0-11.7-5.3-11.7-11.7V233.6c0-6.4,5.3-11.7,11.7-11.7h801.3c6.4,0,11.7,5.3,11.7,11.7
	v744.3C1087.1,984.3,1081.8,989.5,1075.4,989.5z"/>
<path class="st1" d="M1003.8,915.1H202.4c-6.4,0-11.7-5.3-11.7-11.7V159.3c0-6.4,5.3-11.7,11.7-11.7h801.3c6.4,0,11.7,5.3,11.7,11.7
	v744.3C1015.4,909.9,1010.1,915.1,1003.8,915.1z"/>
<g>
	<path class="st2" d="M456,380.1c0,9.4-7.7,16.9-17.1,16.9c-7.3,0-13.6-4.7-15.7-11.2l-6.3-18.3h-70.5l-6.3,18.3
		c-2.1,6.5-8.7,11.2-16,11.2c-9.4,0-16.9-7.5-16.9-16.9c0-2.1,0.5-4.3,1.2-5.9l45.8-118.4c4.3-11.1,14.8-18.8,27.5-18.8
		c12.4,0,23.2,7.7,27.5,18.8l45.5,118.4C455.3,376,456,378,456,380.1z M406.5,338.6l-24.9-70.9l-24.9,70.9H406.5z"/>
</g>
<g>
	<path class="st2" d="M317.5,592.3V471.1c0-11.2,6.3-17.6,17.6-17.6h64.8c29.8,0,45.1,19,45.1,39.9c0,19.7-12.2,32.8-27,35.9
		c16.7,2.5,30,18.8,30,38.6c0,23.5-15.7,42.3-45.5,42.3H335C323.8,610.2,317.5,603.8,317.5,592.3z M392.6,516.5
		c11.2,0,18.3-7.3,18.3-17.4c0-9.6-7.1-17.1-18.3-17.1h-41.8v34.6H392.6z M393.8,581.7c12.7,0,20.2-7.3,20.2-18.5
		c0-9.9-7.1-18.3-20.2-18.3h-43v36.8H393.8z"/>
</g>
<g>
	<path class="st2" d="M309.9,744c0-48.2,36.4-81,82.2-81c25.9,0,43.5,9.6,55.9,23.2c2.5,2.5,4,6.5,4,10.5c0,8.7-7.1,15.7-15.7,15.7
		c-4.7,0-8.9-1.9-12-5.4c-7.7-8.7-19-14.5-32.2-14.5c-27.2,0-47.9,21.9-47.9,51.4c0,29.6,20.7,51.4,47.9,51.4
		c13.2,0,24.4-5.6,32.4-14.8c2.8-3.1,7.1-5.2,11.7-5.2c8.7,0,15.7,7.1,15.7,15.7c0,4-1.5,7.7-4,10.3c-12.4,13.6-30,23.5-55.9,23.5
		C346.3,825,309.9,792.1,309.9,744z"/>
</g>
<line class="st3" x1="537.1" y1="318.8" x2="878.2" y2="318.8"/>
<line class="st3" x1="537.1" y1="529.3" x2="878.2" y2="529.3"/>
<line class="st3" x1="537.1" y1="739.7" x2="878.2" y2="739.7"/>
</svg>
