<?xml version="1.0" encoding="utf-8"?>
<!-- Generator: Adobe Illustrator 22.1.0, SVG Export Plug-In . SVG Version: 6.00 Build 0)  -->
<svg version="1.1" id="Layer_1" xmlns="http://www.w3.org/2000/svg" xmlns:xlink="http://www.w3.org/1999/xlink" x="0px" y="0px"
	 viewBox="0 0 785.7 1125.1" style="enable-background:new 0 0 785.7 1125.1;" xml:space="preserve">
<style type="text/css">
	.st0{fill:#EFF1F9;}
	.st1{fill:none;stroke:#404891;stroke-width:30;stroke-linecap:round;stroke-linejoin:round;stroke-miterlimit:10;}
	.st2{fill:#FFFFFF;}
	.st3{fill:#404891;}
	.st4{fill:none;stroke:#404891;stroke-width:44;stroke-linecap:round;stroke-linejoin:round;stroke-miterlimit:10;}
</style>
<g>
	<polygon class="st0" points="96.3,469 96.3,394.8 427.8,250 758.5,396.6 758.5,470.7 	"/>
	<g>
		<rect x="167" y="547" class="st0" width="97.3" height="228.5"/>
		<rect x="378.8" y="547" class="st0" width="97.3" height="228.5"/>
		<rect x="590.5" y="547" class="st0" width="97.3" height="228.5"/>
	</g>
	<rect x="96.4" y="853.5" class="st0" width="662" height="112.5"/>
	<circle class="st0" cx="604.5" cy="287.1" r="100"/>
	<g>
		<g>
			<path class="st0" d="M593.3,329.2c-2.6,0-5.1-1.1-6.9-3l-23.5-24.6c-3.7-3.8-3.5-9.9,0.3-13.6s9.9-3.5,13.6,0.3l16,16.7
				l42.2-51.9c3.4-4.1,9.4-4.7,13.5-1.4c4.1,3.4,4.7,9.4,1.4,13.5l-49.1,60.4c-1.7,2.1-4.3,3.4-7.1,3.5
				C593.6,329.2,593.5,329.2,593.3,329.2z"/>
		</g>
	</g>
	<circle class="st0" cx="603.8" cy="286.8" r="101.2"/>
</g>
<polygon class="st1" points="57.3,430 57.3,355.8 388.8,211 719.5,357.6 719.5,431.7 "/>
<g>
	<rect x="128" y="508" class="st1" width="97.3" height="228.5"/>
	<rect x="339.8" y="508" class="st1" width="97.3" height="228.5"/>
	<rect x="551.5" y="508" class="st1" width="97.3" height="228.5"/>
</g>
<rect x="57.4" y="814.5" class="st1" width="662" height="112.5"/>
<circle class="st2" cx="586.3" cy="235.7" r="122.2"/>
<g>
	<g>
		<path class="st3" d="M572.6,287.1c-3.2,0-6.2-1.3-8.4-3.7l-28.7-30.1c-4.5-4.6-4.3-12.1,0.4-16.6c4.6-4.5,12.1-4.3,16.6,0.4
			l19.5,20.4l51.6-63.4c4.2-5,11.5-5.7,16.5-1.7c5,4.2,5.7,11.5,1.7,16.5l-60,73.8c-2.1,2.6-5.3,4.2-8.7,4.3
			C573,287.1,572.9,287.1,572.6,287.1z"/>
	</g>
</g>
<circle class="st4" cx="585.4" cy="235.3" r="123.6"/>
</svg>
