<?xml version="1.0" encoding="utf-8"?>
<!-- Generator: Adobe Illustrator 22.1.0, SVG Export Plug-In . SVG Version: 6.00 Build 0)  -->
<svg version="1.1" id="Layer_1" xmlns="http://www.w3.org/2000/svg" xmlns:xlink="http://www.w3.org/1999/xlink" x="0px" y="0px"
	 viewBox="0 0 1479.7 1125.1" style="enable-background:new 0 0 1479.7 1125.1;" xml:space="preserve">
<style type="text/css">
	.st0{fill:#EDF1F9;}
	.st1{fill:#40468F;stroke:#3F4890;stroke-width:4.5;stroke-miterlimit:10;}
	.st2{fill:#40468F;}
</style>
<g>
	<path class="st0" d="M1314.4,634.9c31.7,0,57.4-25.7,57.4-57.2c0-31.6-25.7-57.2-57.4-57.2c-27.7,0-50.8,19.7-56.2,45.7h-187.6
		c-6.3,0-11.5,5-11.5,11.4c0,6.3,5.2,11.4,11.5,11.4h187.6C1263.6,615.1,1286.8,634.9,1314.4,634.9"/>
	<path class="st0" d="M1407.3,802.6c-27.8,0-50.9,19.7-56.2,45.7h-12.6c-26.7,0-46.5-7-58.6-20.8c-18-20.6-14.2-49.8-14.2-50.1
		c0.1-0.5,0.1-1,0.1-1.5c0-48.3-11.1-82.1-33.2-100.5c-18.7-15.6-38.8-14.4-44.1-13.8H1105c-6.3,0-11.5,5.1-11.5,11.4
		s5.2,11.4,11.5,11.4h84.2c0.6,0,1.3-0.1,2-0.2c0.5,0,14.1-1.9,27,9c15.9,13.7,24.4,42.1,24.6,82c-0.6,6.2-3.2,40.9,19.8,67.2
		c16.6,19.1,42.2,28.7,75.8,28.7h12.6c5.3,26.1,28.5,45.7,56.2,45.7c31.6,0,57.4-25.6,57.4-57.2
		C1464.6,828.3,1438.8,802.6,1407.3,802.6"/>
	<path class="st0" d="M1070.6,495.7h94.9c1.1,0.1,3,0.2,5.4,0.2c8.6,0,24.1-1.9,38.7-14.1c22-18.5,33.2-52.3,33.2-100.5
		c0-0.6,0-1-0.1-1.6c0-0.2-3.6-29.7,14.3-50.1c12.2-13.7,31.9-20.7,58.5-20.7h12.6c5.3,26,28.5,45.7,56.2,45.7
		c31.6,0,57.4-25.7,57.4-57.2c0-31.6-25.8-57.2-57.4-57.2c-27.8,0-50.9,19.7-56.2,45.8h-12.6c-33.6,0-59.2,9.6-75.8,28.7
		c-23.1,26.3-20.4,61.1-19.8,67.3c-0.1,40.3-8.7,68.6-25,82.2c-12.8,10.7-26.4,8.7-26.5,8.7c-0.7-0.1-1.4-0.1-2-0.1h-95.7
		c-6.3,0-11.5,5.1-11.5,11.4C1059.1,490.6,1064.3,495.7,1070.6,495.7"/>
	<path class="st0" d="M469.8,566.3H282c-5.3-26.1-28.5-45.7-56.1-45.7c-31.7,0-57.4,25.6-57.4,57.2c0,31.5,25.7,57.2,57.4,57.2
		c27.7,0,50.8-19.8,56.1-45.7h187.7c6.3,0,11.5-5.1,11.5-11.4C481.2,571.3,476.1,566.3,469.8,566.3"/>
	<path class="st0" d="M469.8,472.9h-95.7c-0.7,0-1.3,0-2,0.1c-0.1,0-13.8,2.1-26.6-8.7c-16.2-13.6-24.9-42-24.9-82.2
		c0.6-6.2,3.2-40.9-19.8-67.3c-16.6-19.1-42.2-28.7-75.8-28.7h-12.6c-5.3-26.1-28.5-45.7-56.2-45.7c-31.6,0-57.4,25.6-57.4,57.2
		c0,31.5,25.8,57.2,57.4,57.2c27.8,0,50.9-19.8,56.2-45.7h12.6c26.6,0,46.2,7,58.4,20.7c18,20.4,14.5,49.9,14.3,50.1v1.6
		c0,48.3,11.1,82,33.2,100.5c14.6,12.1,30.1,14.1,38.7,14.1c2.4,0,4.2-0.1,5.4-0.2h94.9c6.3,0,11.5-5.1,11.5-11.4
		C481.2,478,476.1,472.9,469.8,472.9"/>
	<path class="st0" d="M435.3,661.6h-83.4c-5.3-0.6-25.5-1.7-44.1,13.8c-22,18.4-33.2,52.3-33.2,100.5v1.5
		c0.1,0.3,3.8,29.5-14.2,50.1c-12,13.8-31.8,20.8-58.5,20.8h-12.6c-5.3-26.1-28.5-45.7-56.2-45.7c-31.6,0-57.4,25.7-57.4,57.2
		c0,31.6,25.8,57.2,57.4,57.2c27.8,0,50.9-19.7,56.2-45.7H202c33.6,0,59.2-9.6,75.8-28.7c23.1-26.3,20.4-61.1,19.8-67.2
		c0-39.9,8.6-68.3,24.6-82c12.8-11,26.5-9,27-9c0.7,0.1,1.3,0.2,2,0.2h84.2c6.3,0,11.5-5.1,11.5-11.4
		C446.8,666.7,441.6,661.6,435.3,661.6"/>
	<path class="st1" d="M110.2,217.4c19,0,34.4,15.4,34.4,34.3c0,18.9-15.4,34.3-34.4,34.3c-19,0-34.4-15.4-34.4-34.3
		C75.8,232.8,91.2,217.4,110.2,217.4 M110.2,308.9c27.7,0,50.9-19.7,56.2-45.7H179c26.6,0,46.3,7,58.4,20.8
		c18,20.4,14.4,49.9,14.3,50.1c-0.1,0.5-0.1,1-0.1,1.5c0,48.3,11.2,82.1,33.2,100.5c14.6,12.2,30.1,14.2,38.6,14.2
		c2.4,0,4.3-0.2,5.4-0.3h94.9c6.3,0,11.5-5.1,11.5-11.4c0-6.3-5.1-11.4-11.5-11.4h-95.6c-0.7,0-1.3,0.1-2,0.2
		c-0.1,0-13.7,2-26.6-8.7c-16.3-13.6-24.9-42.1-25-82.3c0.7-6.1,3.2-40.9-19.8-67.2c-16.7-19.1-42.2-28.7-75.8-28.7h-12.6
		c-5.3-26.1-28.5-45.7-56.2-45.7c-31.6,0-57.4,25.7-57.4,57.2C52.8,283.3,78.6,308.9,110.2,308.9"/>
	<path class="st1" d="M87.3,848.4c-19,0-34.4-15.4-34.4-34.3c0-18.9,15.4-34.3,34.4-34.3c19,0,34.4,15.4,34.4,34.3
		C121.7,833,106.2,848.4,87.3,848.4 M389.4,615.8H306c-5.2-0.6-25.4-1.7-44.1,13.9c-22,18.4-33.2,52.2-33.2,100.5c0,0.5,0,1,0.1,1.5
		c0,0.3,3.8,29.4-14.2,50c-12.1,13.9-31.8,20.9-58.5,20.9h-12.6c-5.3-26.1-28.5-45.7-56.2-45.7c-31.6,0-57.4,25.7-57.4,57.2
		s25.7,57.2,57.4,57.2c27.7,0,50.9-19.7,56.2-45.7h12.6c33.6,0,59.1-9.7,75.8-28.7c23-26.3,20.5-61.1,19.8-67.3
		c0.1-39.9,8.6-68.3,24.6-82c12.8-11,26.5-9.1,26.9-9c0.7,0.1,1.3,0.2,2,0.2h84.1c6.3,0,11.5-5.1,11.5-11.4
		C400.9,620.9,395.7,615.8,389.4,615.8"/>
	<path class="st1" d="M180,566.3c-19,0-34.4-15.4-34.4-34.3c0-18.9,15.4-34.3,34.4-34.3c19,0,34.4,15.4,34.4,34.3
		C214.4,550.9,199,566.3,180,566.3 M423.8,520.5H236.2c-5.3-26.1-28.5-45.7-56.2-45.7c-31.6,0-57.4,25.7-57.4,57.2
		c0,31.5,25.7,57.2,57.4,57.2c27.7,0,50.9-19.7,56.2-45.7h187.6c6.3,0,11.5-5.1,11.5-11.4C435.3,525.6,430.2,520.5,423.8,520.5"/>
	<path class="st1" d="M1372.8,251.7c0,18.9-15.4,34.3-34.4,34.3c-19,0-34.4-15.4-34.4-34.3c0-18.9,15.4-34.3,34.4-34.3
		C1357.3,217.4,1372.8,232.8,1372.8,251.7 M1395.7,251.7c0-31.5-25.7-57.2-57.4-57.2c-27.7,0-50.9,19.7-56.2,45.7h-12.6
		c-33.6,0-59.1,9.7-75.8,28.7c-23,26.3-20.4,61.1-19.8,67.3c-0.1,40.3-8.7,68.7-25,82.3c-12.9,10.7-26.4,8.7-26.6,8.7
		c-0.7-0.1-1.3-0.2-2-0.2h-95.6c-6.3,0-11.5,5.1-11.5,11.4c0,6.3,5.1,11.4,11.5,11.4h94.9c1.1,0.1,3,0.3,5.4,0.3
		c8.6,0,24.1-2,38.6-14.2c22-18.4,33.2-52.2,33.2-100.5c0-0.5,0-1-0.1-1.5c0-0.3-3.6-29.8,14.4-50.1c12.1-13.8,31.8-20.8,58.4-20.8
		h12.6c5.3,26.1,28.5,45.7,56.2,45.7C1370,308.9,1395.7,283.3,1395.7,251.7"/>
	<path class="st1" d="M1326.9,814.1c0-18.9,15.4-34.3,34.4-34.3c19,0,34.4,15.4,34.4,34.3c0,18.9-15.4,34.3-34.4,34.3
		C1342.3,848.4,1326.9,833,1326.9,814.1 M1047.7,627.3c0,6.3,5.1,11.4,11.5,11.4h84.1c0.7,0,1.3-0.1,2-0.2c0.5,0,14.1-2,26.9,9
		c16,13.7,24.5,42.1,24.6,82c-0.7,6.1-3.2,40.9,19.8,67.3c16.7,19.1,42.2,28.7,75.8,28.7h12.6c5.3,26.1,28.5,45.7,56.2,45.7
		c31.6,0,57.4-25.7,57.4-57.2c0-31.5-25.7-57.2-57.4-57.2c-27.7,0-50.9,19.7-56.2,45.7h-12.6c-26.7,0-46.4-7-58.5-20.9
		c-18-20.6-14.3-49.7-14.2-50c0.1-0.5,0.1-1,0.1-1.5c0-48.3-11.2-82.1-33.2-100.5c-18.7-15.6-38.8-14.5-44.1-13.9h-83.4
		C1052.8,615.8,1047.7,620.9,1047.7,627.3"/>
	<path class="st1" d="M1234.1,532c0-18.9,15.4-34.3,34.4-34.3c19,0,34.4,15.4,34.4,34.3s-15.4,34.3-34.4,34.3
		C1249.6,566.3,1234.1,550.9,1234.1,532 M1013.3,532c0,6.3,5.1,11.4,11.5,11.4h187.6c5.3,26.1,28.5,45.7,56.2,45.7
		c31.6,0,57.4-25.7,57.4-57.2s-25.7-57.2-57.4-57.2c-27.7,0-50.9,19.7-56.2,45.7h-187.6C1018.4,520.5,1013.3,525.6,1013.3,532"/>
	<g>
		<g>
			<g>
				<path class="st0" d="M966.4,577.3V411.2c0.3-8.3,2.3-97.6-57-159.8c-36.5-38.3-87.9-57.8-152.7-57.8H753
					c-64.8,0-116.1,19.4-152.7,57.8c-59.3,62.2-57.3,151.5-57,159.8v164.2c0,0.6,0,1.2,0.1,1.7c-32.1,44.2-49.4,97.2-49.4,152.9
					c0,69.7,27.1,135.2,76.4,184.5c49.3,49.3,114.8,76.4,184.5,76.4s135.2-27.1,184.5-76.4c49.3-49.3,76.4-114.8,76.4-184.5
					C1015.8,674.5,998.5,621.5,966.4,577.3z M868.1,416.9c0,0.2,0,0.4,0,0.6v77.4c-34.9-16.8-73.3-25.7-113.2-25.7
					s-78.3,8.9-113.2,25.7v-77.4c0-0.2,0-0.4,0-0.6c0-0.5-2.1-54.1,31.1-88.9c18.9-19.9,46.2-29.9,80.9-29.9h2.4
					c34.7,0,61.9,10,80.8,29.8C870,362.4,868.1,416.4,868.1,416.9z"/>
			</g>
		</g>
		<g>
			<g>
				<path class="st2" d="M715.9,939c-69.7,0-135.2-27.1-184.5-76.4C482.1,813.3,455,747.8,455,678.2s27.1-135.2,76.4-184.5
					c49.3-49.3,114.8-76.4,184.5-76.4s135.2,27.1,184.5,76.4c49.3,49.3,76.4,114.8,76.4,184.5s-27.1,135.2-76.4,184.5
					C851.1,911.9,785.6,939,715.9,939z M715.9,453.8c-59.9,0-116.3,23.3-158.7,65.7c-42.4,42.4-65.7,98.7-65.7,158.7
					s23.3,116.3,65.7,158.7c42.4,42.4,98.7,65.7,158.7,65.7c59.9,0,116.3-23.3,158.7-65.7c42.4-42.4,65.7-98.7,65.7-158.7
					s-23.3-116.3-65.7-158.7C832.2,477.1,775.8,453.8,715.9,453.8z"/>
			</g>
			<g>
				<path class="st2" d="M715.9,754.9c-42.3,0-76.7-34.4-76.7-76.7s34.4-76.7,76.7-76.7c42.3,0,76.7,34.4,76.7,76.7
					S758.2,754.9,715.9,754.9z M715.9,637.9c-22.2,0-40.2,18-40.2,40.2s18,40.2,40.2,40.2c22.2,0,40.2-18,40.2-40.2
					S738.1,637.9,715.9,637.9z"/>
			</g>
			<g>
				<path class="st2" d="M715.9,854.8c-97.4,0-176.7-79.3-176.7-176.7s79.3-176.7,176.7-176.7s176.7,79.3,176.7,176.7
					S813.3,854.8,715.9,854.8z M715.9,526.4c-83.7,0-151.8,68.1-151.8,151.8S632.2,830,715.9,830s151.8-68.1,151.8-151.8
					S799.6,526.4,715.9,526.4z"/>
			</g>
			<g>
				<path class="st2" d="M841.5,470c-6.9,0-12.4-5.6-12.4-12.4v-92.1c0-0.2,0-0.4,0-0.6c0-0.5,2-54.4-31.2-89
					c-18.9-19.8-46.1-29.8-80.8-29.8h-2.4c-34.8,0-62,10.1-80.9,29.9c-33.2,34.8-31.1,88.4-31.1,88.9c0,0.2,0,0.4,0,0.6v92.1
					c0,6.9-5.6,12.4-12.4,12.4c-6.9,0-12.4-5.6-12.4-12.4v-91.8c-0.2-5.6-1.5-65.6,37.9-106.9c23.8-25,57.1-37.6,98.9-37.6h2.4
					c41.8,0,75.1,12.7,98.9,37.6c39.4,41.3,38.1,101.4,37.9,106.9v91.8C853.9,464.5,848.4,470,841.5,470z"/>
			</g>
			<g>
				<path class="st2" d="M909.2,550.9c-10.1,0-18.2-8.2-18.2-18.2V358.9c0-0.3,0-0.6,0-0.9c0-0.8,3-81.2-47.1-133.6
					c-29.4-30.7-71.8-46.2-126-46.2H714c-54.3,0-96.7,15.6-126,46.2c-50.1,52.4-47.2,132.8-47.1,133.6c0,0.3,0,0.6,0,0.8v164.6
					c0,10.1-8.2,18.2-18.2,18.2s-18.2-8.2-18.2-18.2V359.3c-0.3-8.3-2.3-97.6,57-159.8c36.5-38.3,87.9-57.8,152.7-57.8h3.8
					c64.8,0,116.1,19.4,152.7,57.8c59.3,62.2,57.3,151.5,57,159.8v173.4C927.4,542.7,919.2,550.9,909.2,550.9z"/>
			</g>
		</g>
	</g>
</g>
</svg>
