<svg id="Layer_1" data-name="Layer 1" xmlns="http://www.w3.org/2000/svg" xmlns:xlink="http://www.w3.org/1999/xlink" width="1108" height="659" viewBox="0 0 1108 659"><defs><style>.cls-1{fill:none;}.cls-2{clip-path:url(#clip-path);}.cls-3{fill:#b6b9ff;}.cls-4{fill:#42448e;}</style><clipPath id="clip-path"><rect class="cls-1" x="0.35" width="1107.43" height="658.99"/></clipPath></defs><title>semi-circle</title><g class="cls-2"><path class="cls-3" d="M1099.82,69.82c-.57-4-1.28-8.44-2-11.57a70.22,70.22,0,0,0-81-57.23C985.82,6.35,962.1,32,959,64.29a142,142,0,0,0,1,19.34l0,.26c.36,3.81,1.08,8.06,1.76,11.8l.89,5.59.51,3.63A357.79,357.79,0,0,1,693,507.19l0-.16-13.82,3c-4.45,1-9,1.83-13.12,2.61-4.56.72-9.13,1.43-13.67,2l-13.13,1.84a357.79,357.79,0,0,1-390-288.75l-1.74-9.17c-.53-3.27-1.17-6.91-1.94-10.21l-.4-1.75a138.59,138.59,0,0,0-5.84-19.4,70.14,70.14,0,0,0-75.21-39.51c-38.13,6.55-63.8,42.89-57.35,80.22.4,4,1.24,8.41,2,12.38l.82,4.37c46.63,271.08,305.09,453.69,576.17,407.06l4.21-.82,3.52-.51c271.08-46.62,453.69-305.1,407.07-576.17Z"/><path class="cls-4" d="M118.19,572.66A117.85,117.85,0,1,0,.35,454.82,117.84,117.84,0,0,0,118.19,572.66"/></g></svg>