<?xml version="1.0" encoding="utf-8"?>
<!-- Generator: Adobe Illustrator 23.0.2, SVG Export Plug-In . SVG Version: 6.00 Build 0)  -->
<svg version="1.1" id="Layer_1" xmlns="http://www.w3.org/2000/svg" xmlns:xlink="http://www.w3.org/1999/xlink" x="0px" y="0px"
	 width="516px" height="444px" viewBox="0 0 516 444" style="enable-background:new 0 0 516 444;" xml:space="preserve">
<style type="text/css">
	.st0{clip-path:url(#SVGID_2_);}
	.st1{fill:#44689A;}
	.st2{fill:none;}
	.st3{fill:#9899C1;}
</style>
<title>triangle</title>
<g>
	<defs>
		
			<rect id="SVGID_1_" x="70.3" y="34.7" transform="matrix(0.2072 -0.9783 0.9783 0.2072 -68.5266 487.5464)" width="392.6" height="502.7"/>
	</defs>
	<clipPath id="SVGID_2_">
		<use xlink:href="#SVGID_1_"  style="overflow:visible;"/>
	</clipPath>
	<g class="st0">
		<path class="st1" d="M34.5,427.6c-2.8-2.4-5.5-4.9-8-7.6L4.7,310.4c1.2-3.9,2.6-7.8,4.2-11.7L34.5,427.6z"/>
		<path class="st1" d="M105.4,443.7c-2.1,0.5-4.2,0.9-6.2,1.3L55.3,224.8c1.8-2,3.5-4.1,5.3-6.1L105.4,443.7z"/>
		<path class="st1" d="M71.9,445.4c-2.3-0.3-4.5-0.8-6.8-1.4L28.6,260.6c1.6-2.5,3.3-5.1,5-7.5L71.9,445.4z"/>
		<path class="st1" d="M131,435L83.3,195.4c1.8-1.7,3.7-3.4,5.5-5.1l48.2,242C135,433.2,133,434.1,131,435"/>
		<path class="st1" d="M161.7,419l-49.5-248.5c1.9-1.4,3.8-2.8,5.7-4.1l49.7,249.2C165.6,416.7,163.6,417.9,161.7,419"/>
		<path class="st1" d="M222,382.2L172.2,132c2-1.1,3.9-2.1,5.9-3.1l50,250.7C226,380.4,224,381.3,222,382.2"/>
		<path class="st1" d="M191.8,400.4l-49.9-250.4c1.9-1.2,3.8-2.4,5.8-3.6l49.9,250.4L191.8,400.4"/>
		<path class="st1" d="M259.8,369.5c-2.1,0.5-4.1,1-6.2,1.5L203,116.8c2-0.9,4-1.7,6-2.5L259.8,369.5z"/>
		<path class="st1" d="M292.7,364.7c-2.1,0.2-4.3,0.3-6.4,0.5l-51.8-260.3c2-0.6,4.1-1.2,6.1-1.8L292.7,364.7z"/>
		<path class="st1" d="M361.2,369c-2.2-0.2-4.5-0.5-6.6-0.7L300.1,94.6c2.2,0.1,4.4,0.2,6.6,0.4L361.2,369z"/>
		<path class="st1" d="M326.5,364.7c-2.2-0.1-4.4-0.3-6.6-0.3L266.7,97.1c2.1-0.4,4.2-0.7,6.3-1L326.5,364.7z"/>
		<path class="st1" d="M395.5,371.3l-2.7-0.1c-1.3,0-2.5-0.1-3.8-0.2l-53.9-270.4c2.4,0.8,4.7,1.6,7,2.6L395.5,371.3z"/>
		<path class="st1" d="M12.2,400.6c-12.2-21-15.7-43.2-13-65.3L12.2,400.6z"/>
		<path class="st1" d="M89,446.1c-2.2,0.1-4.3,0.2-6.5,0.1L41.8,241.7c1.7-2.2,3.4-4.5,5.2-6.7L89,446.1z"/>
		<path class="st1" d="M53.9,440c-2.5-1.1-4.9-2.4-7.2-3.7L16.1,282.5c1.5-3,3.1-5.9,4.7-8.9L53.9,440z"/>
		<path class="st1" d="M118,440l-2.7,0.9L69.2,209.5c1.8-1.9,3.6-3.7,5.4-5.6l46.8,234.9L118,440"/>
		<path class="st1" d="M146.4,427.5L97.6,182.4c1.9-1.6,3.7-3.2,5.6-4.7l49.2,246.8C150.4,425.5,148.4,426.5,146.4,427.5"/>
		<path class="st1" d="M206.8,390.9L157,140.6c1.9-1.1,3.9-2.3,5.8-3.4l49.8,250.2C210.7,388.6,208.8,389.7,206.8,390.9"/>
		<path class="st1" d="M176.8,409.9L127,159.9c1.9-1.3,3.8-2.6,5.7-3.9l49.8,250.2C180.7,407.4,178.7,408.6,176.8,409.9"/>
		<path class="st1" d="M243.8,373.9c-1.4,0.5-2.9,0.9-4.3,1.4l-1.8,0.6L187.5,124c2-1,3.9-1.9,5.9-2.8L243.8,373.9z"/>
		<path class="st1" d="M276.1,366.5c-0.8,0.1-1.5,0.2-2.3,0.3c-1.3,0.2-2.6,0.5-4,0.7l-51.2-257.1c2-0.8,4-1.5,6.1-2.2L276.1,366.5z
			"/>
		<path class="st1" d="M343.9,366.9c-2.3-0.3-4.5-0.6-6.7-1l-54-270.9c2.1-0.2,4.3-0.3,6.4-0.3L343.9,366.9z"/>
		<path class="st1" d="M309.5,364.1c-2.2,0-4.3,0-6.5,0.1l-52.5-263.8c2.1-0.5,4.1-1,6.2-1.4L309.5,364.1z"/>
		<path class="st1" d="M378.4,370.4c-2.2-0.2-4.4-0.3-6.6-0.5L317.3,96.3c2.3,0.4,4.5,0.8,6.7,1.3L378.4,370.4z"/>
		<path class="st1" d="M412.5,371.5c-2.2,0-4.3,0-6.5,0l-52.4-262.8c2.4,1.3,4.9,2.7,7.3,4.2L412.5,371.5z"/>
		<path class="st1" d="M445.9,369.5c-3.1,0.3-4.9,0.4-4.9,0.4l0,0l-1.5,0.1l-46.8-235.1c2.6,2,5.1,4.1,7.7,6.2L445.9,369.5z"/>
		<path class="st1" d="M429.3,370.9c-2.1,0.1-4.3,0.3-6.4,0.3l-49.9-250.7c2.5,1.7,5,3.4,7.5,5.2L429.3,370.9z"/>
		<path class="st1" d="M462.3,366.7c-2.2,0.5-4.3,1-6.2,1.4l-43-216.3c2.7,2.3,5.3,4.7,7.9,7.1L462.3,366.7z"/>
		<path class="st1" d="M475.8,362.6c-1.1,0.4-2.2,0.7-3.3,1.1l-0.3,0.1L433.7,171c2.7,2.7,5.4,5.4,8.1,8.1l36.4,182.7
			C477.4,362.1,476.6,362.4,475.8,362.6"/>
		<path class="st1" d="M502.7,347.5L477,218.2c3,3.6,5.8,7.2,8.6,10.8L508,341.5C506.4,343.7,504.6,345.7,502.7,347.5"/>
		<path class="st1" d="M487.8,357.7L455,193c2.8,3.1,5.6,6.1,8.3,9.2l30.3,152.2C491.8,355.5,489.8,356.6,487.8,357.7"/>
		<path class="st1" d="M515.2,325.1L500.8,253c8,15.7,12.7,32.1,13.6,48.3C516.4,310.3,516.5,318.2,515.2,325.1"/>
	</g>
</g>
<rect x="184.6" y="0.6" class="st2" width="290.4" height="324.6"/>
<g>
	<path class="st3" d="M431.8,268l-5.4-209.2L248,168.1L431.8,268z M456.6,3.1c6.6,3.6,10.8,10.5,11,18l7.4,282.3
		c0.3,11.7-8.9,21.4-20.5,21.7c-3.7,0.1-7.4-0.8-10.7-2.6L195.6,187.8c-10.3-5.6-14-18.4-8.5-28.7c1.8-3.3,4.4-6,7.5-7.9L435.5,3.7
		C442-0.3,450-0.5,456.6,3.1"/>
</g>
</svg>
