<?xml version="1.0" standalone="no"?>
<!DOCTYPE svg PUBLIC "-//W3C//DTD SVG 20010904//EN"
        "http://www.w3.org/TR/2001/REC-SVG-20010904/DTD/svg10.dtd">
<svg version="1.0" xmlns="http://www.w3.org/2000/svg"
     width="16.000000pt" height="16.000000pt" viewBox="0 0 16.000000 16.000000"
     preserveAspectRatio="xMidYMid meet">
    <metadata>
        Created by potrace 1.11, written by Peter Selinger 2001-2013
    </metadata>
    <g transform="translate(0.000000,16.000000) scale(0.002883,-0.002883)"
       fill="#000000" stroke="none">
        <path d="M2710 5525 c-19 -12 -255 -157 -525 -320 -269 -164 -506 -308 -525
-320 -33 -22 -311 -191 -1210 -738 -217 -132 -405 -249 -417 -260 -24 -21 -31
-69 -14 -95 5 -8 76 -57 159 -110 84 -54 246 -157 361 -231 l209 -135 -42 -27
c-49 -32 -482 -298 -511 -313 -98 -53 -176 -111 -182 -135 -9 -33 -9 -1078 0
-1111 5 -20 75 -68 324 -223 175 -109 327 -204 338 -210 11 -7 33 -21 50 -32
16 -11 39 -25 50 -31 11 -6 229 -141 485 -301 1258 -784 1482 -923 1504 -927
27 -5 58 12 296 159 96 59 243 149 325 200 784 479 965 590 995 610 19 12 258
159 530 326 654 400 619 377 626 405 15 60 14 61 -396 307 -284 171 -387 237
-378 244 7 6 173 110 368 233 195 123 367 235 383 248 l27 26 0 536 0 536 -27
26 c-16 13 -97 67 -181 119 -84 52 -165 102 -180 111 -15 9 -38 23 -52 31 -27
15 -623 385 -680 422 -19 12 -172 107 -340 210 -311 193 -431 267 -974 603
-202 126 -318 192 -335 191 -14 0 -42 -11 -61 -24z m-11 -602 l0 -418 -240
-145 c-132 -80 -265 -161 -297 -181 -31 -20 -232 -143 -447 -274 -214 -131
-471 -287 -570 -348 -99 -60 -196 -120 -216 -132 l-35 -23 -270 174 c-148 95
-297 190 -331 211 -35 21 -63 40 -63 43 0 4 1539 947 1680 1030 49 29 187 113
485 295 165 102 301 185 302 185 1 0 2 -188 2 -417z m876 -33 c330 -205 614
-380 630 -390 17 -10 111 -68 210 -130 99 -62 192 -120 207 -129 57 -33 664
-410 681 -423 15 -12 -18 -35 -299 -213 -173 -110 -324 -204 -334 -209 -18 -8
-166 78 -515 299 -90 57 -304 190 -890 553 -181 112 -349 216 -372 231 l-42
26 -1 417 0 417 63 -38 c34 -21 332 -206 662 -411z m-746 -549 c25 -15 305
-189 621 -386 316 -197 587 -365 602 -374 157 -93 457 -285 452 -290 -3 -3
-59 -40 -124 -81 -325 -205 -580 -366 -1068 -675 -420 -266 -538 -335 -552
-329 -10 5 -190 119 -399 254 -519 334 -690 444 -866 556 -82 53 -190 122
-240 154 -49 33 -118 76 -152 97 -35 21 -63 40 -63 43 0 3 125 81 278 174 152
93 293 179 312 191 19 13 118 74 220 135 102 62 223 136 270 165 382 236 645
395 653 395 6 0 31 -13 56 -29z m2559 -1226 l-3 -184 -290 180 c-159 99 -291
182 -293 183 -1 2 26 21 60 42 34 21 166 105 292 185 l231 147 3 -184 c1 -101
1 -267 0 -369z m-4281 -29 c114 -74 262 -169 328 -211 66 -42 192 -123 280
-181 88 -57 169 -109 180 -114 11 -6 52 -32 92 -58 128 -83 549 -355 660 -424
58 -38 116 -68 128 -68 17 0 522 314 1115 692 388 248 758 478 768 478 5 0
112 -64 238 -143 126 -78 273 -169 326 -202 107 -66 107 -66 28 -111 -19 -10
-37 -21 -40 -24 -3 -3 -63 -42 -135 -87 -71 -44 -189 -118 -262 -164 -73 -46
-185 -117 -250 -158 -65 -41 -190 -120 -278 -176 -88 -56 -333 -211 -545 -345
-212 -133 -425 -268 -473 -299 -49 -31 -107 -68 -130 -82 -23 -15 -114 -72
-201 -128 l-160 -101 -30 18 c-17 10 -371 237 -786 504 -415 266 -971 623
-1235 792 -264 170 -484 311 -488 316 -5 4 42 39 105 78 318 196 542 332 549
332 4 0 101 -60 216 -134z m-662 -591 c143 -92 281 -181 308 -198 26 -17 47
-33 47 -36 0 -3 -58 -39 -128 -79 -70 -40 -212 -122 -317 -182 -104 -60 -191
-107 -194 -104 -5 5 -8 756 -3 767 6 13 9 11 287 -168z m619 -397 c277 -179
881 -568 946 -608 38 -24 344 -220 558 -358 138 -90 177 -112 200 -117 13 -2
62 22 129 64 122 76 1281 809 1533 969 91 58 170 105 175 105 6 0 143 -80 305
-178 162 -98 304 -183 315 -190 65 -37 85 -51 85 -56 0 -4 -87 -59 -192 -124
-106 -65 -319 -196 -473 -290 -154 -95 -559 -343 -900 -552 -341 -209 -698
-428 -793 -487 -95 -58 -175 -106 -178 -106 -2 0 -280 172 -617 382 -336 209
-803 500 -1037 645 -234 146 -441 275 -460 288 -19 12 -124 78 -233 145 -109
68 -196 124 -195 125 3 2 510 294 578 332 19 11 58 34 85 51 28 17 52 31 54
31 2 1 54 -31 115 -71z"/>
    </g>
</svg>
