<?xml version="1.0" encoding="UTF-8"?>
<svg width="500px" height="933px" viewBox="0 0 500 933" version="1.1" xmlns="http://www.w3.org/2000/svg" xmlns:xlink="http://www.w3.org/1999/xlink">
    <!-- Generator: Sketch 54.1 (76490) - https://sketchapp.com -->
    <title>iPhone XS - Payment - Info</title>
    <desc>Created with Sketch.</desc>
    <g id="iPhone-XS---Payment---Info" stroke="none" stroke-width="1" fill="none" fill-rule="evenodd">
        <g id="payment-info-page" transform="translate(125.000000, 193.000000)">
            <g id="next-btn" transform="translate(23.000000, 506.900000)">
                <rect id="Rectangle" fill="#87BAFC" x="0" y="0" width="204" height="50.4" rx="6"></rect>
                <text id="Allow" font-family="ProximaNova-Regular, Proxima Nova" font-size="16.8" font-weight="normal" letter-spacing="2.4" fill="#FFFFFF">
                    <tspan x="76.2084" y="29.4">NEXT</tspan>
                </text>
            </g>
            <g id="pro-payments-details" transform="translate(0.500000, 175.300000)" fill="#44689A">
                <g id="detail-4" transform="translate(0.000000, 201.600000)">
                    <text id="Reference:" font-family="Montserrat-Regular, Montserrat" font-size="14.4" font-weight="normal">
                        <tspan x="85.8168" y="14">Reference:</tspan>
                    </text>
                    <text id="TrueLayer" font-family="Montserrat-Bold, Montserrat" font-size="18" font-weight="bold">
                        <tspan x="77.247" y="35">TrueLayer</tspan>
                    </text>
                </g>
                <g id="detail-3" transform="translate(0.000000, 134.400000)">
                    <text id="Description:" font-family="Montserrat-Regular, Montserrat" font-size="14.4" font-weight="normal">
                        <tspan x="80.8488" y="14">Description:</tspan>
                    </text>
                    <text id="Payments-API" font-family="Montserrat-Bold, Montserrat" font-size="18" font-weight="bold">
                        <tspan x="57.924" y="35">Payments API</tspan>
                    </text>
                </g>
                <g id="detail-2" transform="translate(0.000000, 67.200000)">
                    <text id="Amount:" font-family="Montserrat-Regular, Montserrat" font-size="14.4" font-weight="normal">
                        <tspan x="92.7144" y="14">Amount:</tspan>
                    </text>
                    <text id="0.01-GBP" font-family="Montserrat-Bold, Montserrat" font-size="18" font-weight="bold">
                        <tspan x="83.133" y="35">0.01 GBP</tspan>
                    </text>
                </g>
                <g id="detail-1">
                    <text id="You-are-paying:" font-family="Montserrat-Regular, Montserrat" font-size="14.4" font-weight="normal">
                        <tspan x="68.7024" y="14">You are paying:</tspan>
                    </text>
                    <text id="Joane-Doe" font-family="Montserrat-Bold, Montserrat" font-size="18" font-weight="bold">
                        <tspan x="74.43" y="35">Joane Doe</tspan>
                    </text>
                </g>
            </g>
            <g id="logo" transform="translate(66.500000, 0.000000)" fill="#F7AB1B">
                <g id="Mark">
                    <path d="M58.5057523,92.2201267 L4.56337327,57.6705463 L18.6926907,49.0489755 L57.6454006,73.9976406 C57.9051792,74.1646742 58.2019433,74.2473119 58.4995881,74.2473119 C58.7937103,74.2473119 59.086952,74.1664325 59.3449695,74.0029154 L98.2941569,49.4269989 L112.435803,58.1927461 L58.5057523,92.2201267 Z M112.363593,80.6095336 L58.5057523,113.562624 L4.6611205,80.1049163 L19.9748526,71.2952129 L57.6454006,95.4236552 C57.9051792,95.5898097 58.2019433,95.6733265 58.4995881,95.6733265 C58.7937103,95.6733265 59.086952,95.5915679 59.3449695,95.4280508 L97.2013253,71.5422468 L112.363593,80.6095336 Z M3.16497152,60.528579 L16.9763904,69.3743266 L3.16497152,77.3189718 L3.16497152,60.528579 Z M4.56689569,36.2471691 L56.9171397,4.39298354 L56.9171397,22.0203025 L18.7340792,45.3206098 L4.56689569,36.2471691 Z M58.4934238,24.7614117 L95.3053813,47.5755634 L58.5057523,70.7949912 L21.6937948,47.2177598 L58.4934238,24.7614117 Z M98.2791866,45.6995123 L60.0820364,22.0264564 L60.0820364,4.41496164 L112.433161,36.7693689 L98.2791866,45.6995123 Z M113.834205,55.3408673 L101.267962,47.5509479 L113.834205,39.6221269 L113.834205,55.3408673 Z M116.999982,36.7465117 C116.99734,36.2032129 116.713785,35.6977165 116.249706,35.4120012 L59.332641,0.236484405 C59.3176707,0.226814039 59.299178,0.223297542 59.2842077,0.215385425 C59.1899829,0.160879725 59.091355,0.116923516 58.986563,0.0835167973 C58.9539806,0.0738464313 58.9231594,0.0624178169 58.8896964,0.0536265751 C58.769934,0.0228572287 58.6466492,0.00351649673 58.5189614,0.00175824836 C58.5136777,0.00175824836 58.5083941,0.000879124182 58.5031105,0.000879124182 C58.5022299,0.000879124182 58.5004687,0 58.4995881,0 C58.3674972,0 58.24069,0.0210989804 58.1182858,0.0509892026 C58.0848228,0.0597804444 58.053121,0.0712090587 58.0205386,0.0808794247 C57.9192689,0.113407019 57.8232829,0.154725856 57.7316999,0.206594183 C57.7140878,0.216264549 57.6938339,0.219781045 57.6771024,0.230330536 L0.75915691,34.8634277 C0.293316527,35.1473848 0.00623908866,35.6502438 7.48491911e-05,36.1944217 C-0.00520878464,36.7385996 0.269540175,37.2484916 0.728335713,37.5429982 L15.7329752,47.1518255 L0.757395699,56.2903214 C0.749470248,56.2955961 0.744186614,56.3026291 0.736261163,56.3070247 C0.633230304,56.372959 0.538124895,56.4476846 0.452706148,56.5338388 C0.439497063,56.5487839 0.42804919,56.5646081 0.414840105,56.5804323 C0.347033471,56.6542788 0.288032893,56.7351582 0.235196555,56.8204333 C0.215823231,56.8520817 0.199091724,56.8846093 0.183240822,56.9171369 C0.142732963,56.9944998 0.110150554,57.0745001 0.0819711736,57.1588961 C0.0722845116,57.1931819 0.059075427,57.2257095 0.0502693706,57.2617536 C0.0256124127,57.363732 0.0106421169,57.4683478 0.00623908866,57.57648 C0.00535848303,57.5914252 7.48491911e-05,57.6054911 7.48491911e-05,57.6213154 C7.48491911e-05,57.6230736 0.00095545483,57.625711 0.00095545483,57.625711 C0.00095545483,57.6318649 7.48491911e-05,57.6345022 7.48491911e-05,57.6345022 L7.48491911e-05,80.0521689 C7.48491911e-05,80.1743671 0.017686962,80.2930489 0.0432245255,80.4064559 C0.0511499763,80.4372253 0.0625978496,80.4644781 0.071403906,80.4943683 C0.0978220751,80.5849181 0.131285089,80.6719514 0.172673554,80.7554682 C0.189405062,80.7879958 0.206136569,80.8196443 0.224629287,80.8512928 C0.274823809,80.9348096 0.330301964,81.0121725 0.394586175,81.0842607 C0.411317683,81.1044805 0.426287978,81.1273378 0.444780697,81.1457994 C0.530199444,81.2345909 0.624424247,81.3119538 0.728335713,81.3778881 C0.734499952,81.3831629 0.739783586,81.3893168 0.746828431,81.3937124 L57.6638933,116.760878 C57.9201495,116.92 58.2089882,117 58.4995881,117 C58.7866655,117 59.0737429,116.921758 59.3273574,116.766153 L116.243542,81.9414067 C116.716427,81.6521749 117.002624,81.1396455 116.999982,80.5866764 C116.996459,80.0345864 116.704979,79.5229361 116.231213,79.238979 L100.198907,69.6512507 L116.262034,59.5149489 C116.267318,59.5123115 116.271721,59.5070368 116.276124,59.5043994 C116.378274,59.4375859 116.471618,59.360223 116.556157,59.2723106 C116.57553,59.2529699 116.5905,59.2301126 116.608993,59.2090137 C116.669755,59.1386837 116.724352,59.063079 116.772786,58.9830787 C116.791278,58.9514303 116.80889,58.9189027 116.826503,58.885496 C116.865249,58.8063748 116.897832,58.7237371 116.92425,58.6375829 C116.933936,58.6059345 116.945384,58.5751651 116.95331,58.5417584 C116.981489,58.425714 116.999982,58.305274 116.999982,58.1804384 L116.999982,37.5183827 C116.999982,37.3891515 116.979728,37.2651949 116.949787,37.1456341 C116.98325,37.0164028 116.999982,36.8836551 116.999982,36.7465117 L116.999982,36.7465117 Z" id="Fill-1"></path>
                </g>
            </g>
        </g>
    </g>
</svg>