<svg xmlns="http://www.w3.org/2000/svg" viewBox="0 0 132.86 133.09"><title>TrueLayer-LOGO-mark-yellow</title><g id="Original_Horizontal" data-name="Original Horizontal"><path d="M66.43,108.83a1.8,1.8,0,0,1-1-.28L.83,67.08a1.8,1.8,0,0,1,0-3L65.49,24.52a1.8,1.8,0,0,1,1.88,0L132,64.65a1.8,1.8,0,0,1,0,3L67.39,108.55A1.8,1.8,0,0,1,66.43,108.83ZM5.18,65.6l61.26,39.3,61.24-38.71-61.26-38Z" style="fill:#f7ab1b"/><path d="M66.43,84.46a1.8,1.8,0,0,1-1-.28L.83,42.7a1.8,1.8,0,0,1,0-3L65.5.26a1.8,1.8,0,0,1,1.88,0l64.63,40a1.8,1.8,0,0,1,0,3L67.39,84.18A1.8,1.8,0,0,1,66.43,84.46ZM5.19,41.23l61.25,39.3,61.24-38.7L66.42,3.91Z" style="fill:#f7ab1b"/><path d="M66.43,133.09a1.79,1.79,0,0,1-.95-.27L.85,92.58A1.8,1.8,0,0,1,.9,89.5L21.84,77.44a1.8,1.8,0,0,1,1.79,3.11L5.29,91.12l61.15,38.06L127.6,91.69,110.05,81.18a1.8,1.8,0,1,1,1.85-3.08l20.09,12a1.8,1.8,0,0,1,0,3.07L67.37,132.82A1.8,1.8,0,0,1,66.43,133.09Z" style="fill:#f7ab1b"/><path d="M1.8,92.86A1.8,1.8,0,0,1,0,91.06V65.56a1.8,1.8,0,0,1,3.59,0v25.5A1.8,1.8,0,0,1,1.8,92.86Z" style="fill:#f7ab1b"/><path d="M131.07,68a1.8,1.8,0,0,1-1.8-1.8V42.68a1.8,1.8,0,0,1,3.59,0v23.5A1.8,1.8,0,0,1,131.07,68Z" style="fill:#f7ab1b"/><path d="M66.43,27.85a1.8,1.8,0,0,1-1.8-1.8V1.8a1.8,1.8,0,0,1,3.59,0V26.06A1.8,1.8,0,0,1,66.43,27.85Z" style="fill:#f7ab1b"/></g></svg>