<svg id="Layer_1" data-name="Layer 1" xmlns="http://www.w3.org/2000/svg" xmlns:xlink="http://www.w3.org/1999/xlink" width="139.63mm" height="135.78mm" viewBox="0 0 395.8 384.9">
  <defs>
    <style>
      .cls-1 {
        fill: url(#linear-gradient);
      }

      .cls-2 {
        fill: url(#linear-gradient-2);
      }

      .cls-3 {
        fill: url(#linear-gradient-3);
      }

      .cls-4 {
        fill: #41478d;
      }

      .cls-13, .cls-14, .cls-16, .cls-17, .cls-5 {
        opacity: 0.85;
      }

      .cls-14, .cls-16, .cls-17, .cls-5 {
        isolation: isolate;
      }

      .cls-5 {
        fill: url(#linear-gradient-4);
      }

      .cls-6 {
        fill: #37398d;
      }

      .cls-7 {
        fill: #232666;
      }

      .cls-8 {
        fill: #fff;
      }

      .cls-9 {
        fill: #7a80ff;
      }

      .cls-10 {
        fill: #aeb4fc;
      }

      .cls-11 {
        fill: #353a72;
      }

      .cls-12 {
        fill: #475091;
      }

      .cls-14 {
        fill: url(#linear-gradient-5);
      }

      .cls-15 {
        fill: #15b7ff;
      }

      .cls-16 {
        fill: url(#linear-gradient-6);
      }

      .cls-17 {
        fill: url(#linear-gradient-7);
      }

      .cls-18 {
        fill: #13ace2;
      }
    </style>
    <linearGradient id="linear-gradient" x1="55.1" y1="246.68" x2="289.2" y2="246.68" gradientTransform="matrix(1, 0, 0, -1, -26.4, 404.73)" gradientUnits="userSpaceOnUse">
      <stop offset="0.08" stop-color="#4ec4f9"/>
      <stop offset="0.28" stop-color="#058fd9"/>
      <stop offset="0.49" stop-color="#0863ac"/>
      <stop offset="0.7" stop-color="#043d8b"/>
      <stop offset="0.89" stop-color="#012273"/>
      <stop offset="1" stop-color="#00186a"/>
    </linearGradient>
    <linearGradient id="linear-gradient-2" x1="262.38" y1="427.86" x2="75.33" y2="240.81" xlink:href="#linear-gradient"/>
    <linearGradient id="linear-gradient-3" x1="13.22" y1="247.26" x2="90.69" y2="113.08" xlink:href="#linear-gradient"/>
    <linearGradient id="linear-gradient-4" x1="26.4" y1="152.88" x2="70.6" y2="152.88" gradientTransform="matrix(1, 0, 0, -1, 0, 418.83)" gradientUnits="userSpaceOnUse">
      <stop offset="0" stop-color="#05c7ff"/>
      <stop offset="0.5" stop-color="#50eef7"/>
      <stop offset="1" stop-color="#9affff"/>
    </linearGradient>
    <linearGradient id="linear-gradient-5" x1="271.1" y1="328.33" x2="271.1" y2="82.73" gradientTransform="matrix(1, 0, 0, -1, -26.4, 404.73)" xlink:href="#linear-gradient-4"/>
    <linearGradient id="linear-gradient-6" x1="147.5" y1="261.43" x2="388.1" y2="261.43" gradientTransform="matrix(1, 0, 0, -1, -26.4, 404.73)" gradientUnits="userSpaceOnUse">
      <stop offset="0" stop-color="#05c7ff"/>
      <stop offset="0.12" stop-color="#13d1fe"/>
      <stop offset="0.36" stop-color="#36ecfa"/>
      <stop offset="0.5" stop-color="#50fff7"/>
      <stop offset="1" stop-color="#9affff"/>
    </linearGradient>
    <linearGradient id="linear-gradient-7" x1="150.8" y1="82.73" x2="150.8" y2="194.93" xlink:href="#linear-gradient-6"/>
  </defs>
  <title>use-cases</title>
  <g id="use-cases">
    <g>
      <polygon class="cls-1" points="28.7 141.2 28.7 312.3 262.8 174.7 262.8 3.8 28.7 141.2"/>
      <polygon class="cls-2" points="28.7 141.1 22.1 137.1 255.2 0 262.8 3.7 28.7 141.1"/>
      <polygon class="cls-3" points="22.1 137.1 28.7 141.1 28.7 312.2 22.1 307.5 22.1 137.1"/>
      <ellipse class="cls-4" cx="172.29" cy="176.83" rx="19.8" ry="11.4" transform="translate(-93.72 222.23) rotate(-59.69)"/>
      <path class="cls-5" d="M26.4,253.2c0,14,9.9,31.1,22.1,38.1s22.1,1.4,22.1-12.6-9.9-31.1-22.1-38.1S26.4,239.2,26.4,253.2Z" transform="translate(-26.4 -14.1)"/>
      <path class="cls-6" d="M55.1,169.2,289.1,32s.8,43.9,0,43.9-234,136.9-234,136.9Z" transform="translate(-26.4 -14.1)"/>
      <polygon class="cls-7" points="28.7 198.7 22.1 194.5 22.1 151.5 28.7 155.1 28.7 198.7"/>
      <g>
        <ellipse class="cls-8" cx="47.51" cy="257.41" rx="4.6" ry="7.9" transform="translate(-149.82 45.07) rotate(-30.31)"/>
        <path class="cls-8" d="M57.1,284.6,38.3,273.8a1.37,1.37,0,0,1-.6-1.3c.5-2.6,2.6-10,10.7-5.3,7.1,4.1,9.6,12,10.4,16.1A1.15,1.15,0,0,1,57.1,284.6Z" transform="translate(-26.4 -14.1)"/>
      </g>
      <polygon class="cls-9" points="74.4 174.3 74.4 345.3 308.4 207.7 308.4 36.8 74.4 174.3"/>
      <polygon class="cls-10" points="74.6 174.3 68 170.3 301 33.2 308.6 36.9 74.6 174.3"/>
      <polygon class="cls-6" points="68 170.3 74.6 174.3 74.6 345.4 68 340.7 68 170.3"/>
      <polyline class="cls-6" points="68 277.8 68 278.7 68 341.7 74.6 345.4 74.6 282.4"/>
      <polygon class="cls-11" points="259.2 82.6 314.9 50.1 314.9 71.9 259.2 105.1 259.2 82.6"/>
      <ellipse class="cls-11" cx="258.64" cy="149.58" rx="31.2" ry="18" transform="translate(-27.42 283.27) rotate(-59.69)"/>
      <polygon class="cls-11" points="232.2 135.5 215.7 193.3 246.6 175.5 232.2 135.5"/>
      <ellipse class="cls-10" cx="258.64" cy="149.58" rx="19.8" ry="11.4" transform="translate(-27.42 283.27) rotate(-59.69)"/>
      <g>
        <polyline class="cls-12" points="67.9 191.7 67.9 215.9 49.7 222.4 49.7 201.6"/>
        <polygon class="cls-8" points="74.3 215.8 113.1 193.2 113.1 214.2 74.3 237.2 74.3 215.8"/>
        <polygon class="cls-10" points="74.3 215.8 74.3 237.2 49.7 222.4 49.7 201.6 74.3 215.8"/>
      </g>
      <g class="cls-13">
        <polygon class="cls-14" points="127.7 213.9 127.7 322 361.7 184.3 361.7 76.4 127.7 213.9"/>
        <polygon class="cls-15" points="127.7 322 127.7 384.9 361.7 247.7 361.7 184.3 127.7 322"/>
        <polygon class="cls-16" points="127.7 213.9 121.1 209.8 354.2 72.7 361.7 76.4 127.7 213.9"/>
        <polygon class="cls-17" points="121.1 209.8 127.7 213.9 127.7 322 121.1 317.3 121.1 209.8"/>
      </g>
      <polyline class="cls-18" points="127.7 322 127.7 384.9 121.1 381.2 121.1 318.2 121.1 317.3"/>
      <path class="cls-4" d="M190.8,324.3a1.54,1.54,0,0,1-1.5-1.5V270.2a1.5,1.5,0,0,1,3,0v52.6A1.54,1.54,0,0,1,190.8,324.3Z" transform="translate(-26.4 -14.1)"/>
      <path class="cls-8" d="M203.8,355.2l-35,20.7a1.88,1.88,0,0,1-.8.2,1.85,1.85,0,0,1-.7-.2,1.56,1.56,0,0,1-.8-1.3V355.9a1.71,1.71,0,0,1,.7-1.3l13.3-7.8,8.7-5.1V314.8l3-1.8v29.5a1.71,1.71,0,0,1-.7,1.3l-6.3,3.7-15.7,9.2V372l32.8-19.4a1.46,1.46,0,0,1,2,.5A1.6,1.6,0,0,1,203.8,355.2Z" transform="translate(-26.4 -14.1)"/>
      <path class="cls-8" d="M205.8,359.2a5,5,0,0,1-2.1-.5,5.06,5.06,0,0,1-2.2-4.6,12.69,12.69,0,0,1,5.9-10.1,5,5,0,0,1,5.1-.4,5.06,5.06,0,0,1,2.2,4.6,12.69,12.69,0,0,1-5.9,10.1A5.53,5.53,0,0,1,205.8,359.2Zm4.6-13.2a3.32,3.32,0,0,0-1.5.5,9.75,9.75,0,0,0-4.4,7.5,2.49,2.49,0,0,0,.7,2,2.18,2.18,0,0,0,2.1-.4,9.75,9.75,0,0,0,4.4-7.5,2.49,2.49,0,0,0-.7-2A3.54,3.54,0,0,0,210.4,346Z" transform="translate(-26.4 -14.1)"/>
      <path class="cls-4" d="M227.8,271.7a1.45,1.45,0,0,1-.7-.2,1.56,1.56,0,0,1-.8-1.3v-9.5a1.5,1.5,0,0,1,3,0v6.9l53.1-31.3a1.36,1.36,0,0,1,1.5,0,1.56,1.56,0,0,1,.8,1.3V266a1.5,1.5,0,0,1-3,0V240.2l-53.1,31.3A3.09,3.09,0,0,1,227.8,271.7Z" transform="translate(-26.4 -14.1)"/>
      <path class="cls-4" d="M260,283.6a1.54,1.54,0,0,1-1.5-1.5V251.3a1.5,1.5,0,0,1,3,0v30.8A1.54,1.54,0,0,1,260,283.6Z" transform="translate(-26.4 -14.1)"/>
      <path class="cls-4" d="M209.7,221.2a1.54,1.54,0,0,1-1.5-1.5V162.5a1.5,1.5,0,0,1,3,0v57.2A1.54,1.54,0,0,1,209.7,221.2Z" transform="translate(-26.4 -14.1)"/>
      <path class="cls-4" d="M350.2,135a1.56,1.56,0,0,1-1.3-.8,1.41,1.41,0,0,1,.6-2l45-25.6a1.48,1.48,0,1,1,1.4,2.6l-45,25.6A1.45,1.45,0,0,1,350.2,135Z" transform="translate(-26.4 -14.1)"/>
      <path class="cls-4" d="M376.1,163.1a1.45,1.45,0,0,1-.7-.2,1.56,1.56,0,0,1-.8-1.3V140.2a1.5,1.5,0,1,1,3,0V159l32.2-18.7a1.46,1.46,0,0,1,1.5,2.5l-34.4,20A.91.91,0,0,1,376.1,163.1Z" transform="translate(-26.4 -14.1)"/>
      <path class="cls-4" d="M370,222.7a1.54,1.54,0,0,1-1.5-1.5v-29a1.5,1.5,0,0,1,3,0v29A1.54,1.54,0,0,1,370,222.7Z" transform="translate(-26.4 -14.1)"/>
      <path class="cls-4" d="M321.2,246.7a1.54,1.54,0,0,1-1.5-1.5V181.3a1.44,1.44,0,0,1,.8-1.3l25-13.6a1.48,1.48,0,1,1,1.4,2.6l-24.3,13.2v63A1.3,1.3,0,0,1,321.2,246.7Z" transform="translate(-26.4 -14.1)"/>
      <path class="cls-4" d="M135.1,353.4a1.54,1.54,0,0,1-1.5-1.5V313.3a1.71,1.71,0,0,1,.7-1.3l32.1-18.7V268.7l-11.6,7.4a1.53,1.53,0,0,1-1.6,0l-12-7.2a1.53,1.53,0,0,1,1.6-2.6L154,273l13.1-8.4a1.6,1.6,0,0,1,1.5-.1,1.44,1.44,0,0,1,.8,1.3V294a1.71,1.71,0,0,1-.7,1.3L136.6,314v37.8A1.5,1.5,0,0,1,135.1,353.4Z" transform="translate(-26.4 -14.1)"/>
      <path class="cls-4" d="M189.2,271.6a4.55,4.55,0,0,1-2-.5,4.89,4.89,0,0,1-2.2-4.5,12.82,12.82,0,0,1,5.8-10,4.83,4.83,0,0,1,5-.4,4.89,4.89,0,0,1,2.2,4.5,12.56,12.56,0,0,1-5.8,10A5.79,5.79,0,0,1,189.2,271.6Zm4.6-13.1a3.68,3.68,0,0,0-1.6.5,9.93,9.93,0,0,0-4.4,7.6,2.43,2.43,0,0,0,.8,2.1,2.14,2.14,0,0,0,2.2-.4,9.93,9.93,0,0,0,4.4-7.6,2.43,2.43,0,0,0-.8-2.1C194.3,258.5,194.1,258.5,193.8,258.5Z" transform="translate(-26.4 -14.1)"/>
      <path class="cls-4" d="M137.4,366.4a6.07,6.07,0,0,1-3-.9,12.56,12.56,0,0,1-5.8-10,4.89,4.89,0,0,1,2.2-4.5,4.83,4.83,0,0,1,5,.4,12.56,12.56,0,0,1,5.8,10,4.89,4.89,0,0,1-2.2,4.5A4.23,4.23,0,0,1,137.4,366.4Zm-4.6-13.1a1.07,1.07,0,0,0-.6.2,2.31,2.31,0,0,0-.8,2.1,9.93,9.93,0,0,0,4.4,7.6c.9.5,1.7.7,2.2.4a2.31,2.31,0,0,0,.8-2.1,9.93,9.93,0,0,0-4.4-7.6A2.16,2.16,0,0,0,132.8,353.3Z" transform="translate(-26.4 -14.1)"/>
      <path class="cls-4" d="M225.5,262.6a4.55,4.55,0,0,1-2-.5,4.89,4.89,0,0,1-2.2-4.5,12.82,12.82,0,0,1,5.8-10,4.83,4.83,0,0,1,5-.4,4.89,4.89,0,0,1,2.2,4.5,12.56,12.56,0,0,1-5.8,10A6.37,6.37,0,0,1,225.5,262.6Zm4.5-13.1a3.68,3.68,0,0,0-1.6.5,9.93,9.93,0,0,0-4.4,7.6,2.43,2.43,0,0,0,.8,2.1,2.14,2.14,0,0,0,2.2-.4,9.93,9.93,0,0,0,4.4-7.6,2.43,2.43,0,0,0-.8-2.1C230.5,249.5,230.3,249.5,230,249.5Z" transform="translate(-26.4 -14.1)"/>
      <path class="cls-4" d="M207.4,233.9a4.55,4.55,0,0,1-2-.5,4.89,4.89,0,0,1-2.2-4.5,12.56,12.56,0,0,1,5.8-10,4.83,4.83,0,0,1,5-.4,4.89,4.89,0,0,1,2.2,4.5,12.56,12.56,0,0,1-5.8,10A6.37,6.37,0,0,1,207.4,233.9Zm4.6-13.1a3.68,3.68,0,0,0-1.6.5,9.93,9.93,0,0,0-4.4,7.6,2.43,2.43,0,0,0,.8,2.1,2.14,2.14,0,0,0,2.2-.4,9.93,9.93,0,0,0,4.4-7.6,2.43,2.43,0,0,0-.8-2.1A1.27,1.27,0,0,0,212,220.8Z" transform="translate(-26.4 -14.1)"/>
      <path class="cls-4" d="M207.4,164.3a4.55,4.55,0,0,1-2-.5,4.89,4.89,0,0,1-2.2-4.5,12.56,12.56,0,0,1,5.8-10c1.8-1,3.6-1.2,5-.4a4.89,4.89,0,0,1,2.2,4.5,12.56,12.56,0,0,1-5.8,10A6.37,6.37,0,0,1,207.4,164.3Zm4.6-13.1a3.68,3.68,0,0,0-1.6.5,9.93,9.93,0,0,0-4.4,7.6,2.43,2.43,0,0,0,.8,2.1,2.14,2.14,0,0,0,2.2-.4,9.93,9.93,0,0,0,4.4-7.6,2.43,2.43,0,0,0-.8-2.1C212.4,151.3,212.2,151.2,212,151.2Z" transform="translate(-26.4 -14.1)"/>
      <path class="cls-4" d="M367.9,194.1a4.55,4.55,0,0,1-2-.5,4.89,4.89,0,0,1-2.2-4.5,12.82,12.82,0,0,1,5.8-10,4.83,4.83,0,0,1,5-.4,4.89,4.89,0,0,1,2.2,4.5,12.56,12.56,0,0,1-5.8,10A6.37,6.37,0,0,1,367.9,194.1Zm4.6-13.1a3.68,3.68,0,0,0-1.6.5,9.93,9.93,0,0,0-4.4,7.6,2.43,2.43,0,0,0,.8,2.1,2.14,2.14,0,0,0,2.2-.4,9.93,9.93,0,0,0,4.4-7.6,2.43,2.43,0,0,0-.8-2.1A1.27,1.27,0,0,0,372.5,181Z" transform="translate(-26.4 -14.1)"/>
      <path class="cls-4" d="M413.4,146.6a4.55,4.55,0,0,1-2-.5,4.89,4.89,0,0,1-2.2-4.5,12.56,12.56,0,0,1,5.8-10c1.8-1,3.6-1.2,5-.4a4.89,4.89,0,0,1,2.2,4.5,12.56,12.56,0,0,1-5.8,10A6.37,6.37,0,0,1,413.4,146.6Zm4.5-13.1a3.68,3.68,0,0,0-1.6.5,9.93,9.93,0,0,0-4.4,7.6,2.43,2.43,0,0,0,.8,2.1,2.14,2.14,0,0,0,2.2-.4,9.93,9.93,0,0,0,4.4-7.6,2.43,2.43,0,0,0-.8-2.1C418.4,133.5,418.2,133.5,417.9,133.5Z" transform="translate(-26.4 -14.1)"/>
      <path class="cls-4" d="M342.8,144.5a4.55,4.55,0,0,1-2-.5,4.89,4.89,0,0,1-2.2-4.5,12.56,12.56,0,0,1,5.8-10c1.8-1,3.6-1.2,5-.4a4.89,4.89,0,0,1,2.2,4.5,12.56,12.56,0,0,1-5.8,10A6.07,6.07,0,0,1,342.8,144.5Zm4.6-13.2a3.68,3.68,0,0,0-1.6.5,9.93,9.93,0,0,0-4.4,7.6,2.43,2.43,0,0,0,.8,2.1,2.14,2.14,0,0,0,2.2-.4,9.93,9.93,0,0,0,4.4-7.6,2.43,2.43,0,0,0-.8-2.1C347.8,131.4,347.6,131.3,347.4,131.3Z" transform="translate(-26.4 -14.1)"/>
      <path class="cls-4" d="M349.1,173a4.55,4.55,0,0,1-2-.5,4.89,4.89,0,0,1-2.2-4.5,12.56,12.56,0,0,1,5.8-10,4.83,4.83,0,0,1,5-.4,4.89,4.89,0,0,1,2.2,4.5,12.82,12.82,0,0,1-5.8,10A6.07,6.07,0,0,1,349.1,173Zm4.6-13.1a3.68,3.68,0,0,0-1.6.5,9.93,9.93,0,0,0-4.4,7.6,2.43,2.43,0,0,0,.8,2.1,2.14,2.14,0,0,0,2.2-.4,9.93,9.93,0,0,0,4.4-7.6,2.43,2.43,0,0,0-.8-2.1A1.27,1.27,0,0,0,353.7,159.9Z" transform="translate(-26.4 -14.1)"/>
      <path class="cls-8" d="M261.5,272.5v28.6a1.5,1.5,0,0,1-3,0V274.3Z" transform="translate(-26.4 -14.1)"/>
      <path class="cls-8" d="M322.7,236.6v15.8a1.71,1.71,0,0,1-.7,1.3l-38.2,22.6a1.88,1.88,0,0,1-.8.2,1.45,1.45,0,0,1-.7-.2,1.56,1.56,0,0,1-.8-1.3V260.8l3-1.8v13.3l35.2-20.8V238.3Z" transform="translate(-26.4 -14.1)"/>
      <path class="cls-8" d="M276.3,323.1a1.54,1.54,0,0,1-1.5-1.5V300.4a1.71,1.71,0,0,1,.7-1.3l36.7-21.4V256.8a1.5,1.5,0,0,1,3,0v21.7a1.71,1.71,0,0,1-.7,1.3l-36.7,21.4v20.3A1.56,1.56,0,0,1,276.3,323.1Z" transform="translate(-26.4 -14.1)"/>
      <path class="cls-8" d="M257.7,314.8a5,5,0,0,1-2.1-.5,5.06,5.06,0,0,1-2.2-4.6,12.69,12.69,0,0,1,5.9-10.1,5,5,0,0,1,5.1-.4,5.06,5.06,0,0,1,2.2,4.6,12.69,12.69,0,0,1-5.9,10.1A6.07,6.07,0,0,1,257.7,314.8Zm4.6-13.1a3.32,3.32,0,0,0-1.5.5,9.75,9.75,0,0,0-4.4,7.5,2.49,2.49,0,0,0,.7,2,2.18,2.18,0,0,0,2.1-.4,9.75,9.75,0,0,0,4.4-7.5,2.49,2.49,0,0,0-.7-2A1.27,1.27,0,0,0,262.3,301.7Z" transform="translate(-26.4 -14.1)"/>
      <path class="cls-8" d="M353.8,267.7a5,5,0,0,1-2.1-.5,5.06,5.06,0,0,1-2.2-4.6,12.69,12.69,0,0,1,5.9-10.1,5,5,0,0,1,5.1-.4,5.06,5.06,0,0,1,2.2,4.6,12.69,12.69,0,0,1-5.9,10.1A5.53,5.53,0,0,1,353.8,267.7Zm4.6-13.1a3.32,3.32,0,0,0-1.5.5,9.75,9.75,0,0,0-4.4,7.5,2.49,2.49,0,0,0,.7,2,2.18,2.18,0,0,0,2.1-.4,9.75,9.75,0,0,0,4.4-7.5,2.49,2.49,0,0,0-.7-2C358.9,254.6,358.7,254.6,358.4,254.6Z" transform="translate(-26.4 -14.1)"/>
      <path class="cls-8" d="M396.1,215.3v22.3a1.56,1.56,0,0,1-.8,1.3L362,257.8a1.85,1.85,0,0,1-.7.2,1.56,1.56,0,0,1-1.3-.8,1.54,1.54,0,0,1,.6-2.1l32.6-18.5V217.8L370.8,231a1.36,1.36,0,0,1-1.5,0,1.56,1.56,0,0,1-.8-1.3V209.6l2.2-1.3a1.34,1.34,0,0,1,.8,1.3V227l22.4-13.2a1.36,1.36,0,0,1,1.5,0A2.57,2.57,0,0,1,396.1,215.3Z" transform="translate(-26.4 -14.1)"/>
    </g>
  </g>
</svg>
